HIERARCHY
ROOT Hips
{
  OFFSET 5.84602e-005 68.8428 3.50346
  CHANNELS 6 Xposition Yposition Zposition Zrotation Xrotation Yrotation
  JOINT Spine
  {
    OFFSET 0 8.597 -4.6522
    CHANNELS 3 Zrotation Xrotation Yrotation
    JOINT Spine1
    {
      OFFSET 0 7.8454 0.4098
      CHANNELS 3 Zrotation Xrotation Yrotation
      JOINT Spine2
      {
        OFFSET 0 9.7078 -2.1609
        CHANNELS 3 Zrotation Xrotation Yrotation
        JOINT Neck
        {
          OFFSET 0 21.8761 -0.4549
          CHANNELS 3 Zrotation Xrotation Yrotation
          JOINT Head
          {
            OFFSET 0 12.3537 3.3602
            CHANNELS 3 Zrotation Xrotation Yrotation
            End Site
            {
              OFFSET 0.0001 18.9506 0.5657
            }
          }
        }
        JOINT LeftShoulder
        {
          OFFSET 2.2086 21.1115 7.2329
          CHANNELS 3 Zrotation Xrotation Yrotation
          JOINT LeftArm
          {
            OFFSET 13.1193 3.0282 -4.8998
            CHANNELS 3 Zrotation Xrotation Yrotation
            JOINT LeftForeArm
            {
              OFFSET 27.4081 -0.0973053 -0.2375
              CHANNELS 3 Zrotation Xrotation Yrotation
              JOINT LeftHand
              {
                OFFSET 22.8641 0.0662994 -0.1369
                CHANNELS 3 Zrotation Xrotation Yrotation
                JOINT LeftHandIndex1
                {
                  OFFSET 8.8614 0.775009 2.4612
                  CHANNELS 3 Zrotation Xrotation Yrotation
                  JOINT LeftHandIndex2
                  {
                    OFFSET 3.3146 -0.808304 0.5841
                    CHANNELS 3 Zrotation Xrotation Yrotation
                    JOINT LeftHandIndex3
                    {
                      OFFSET 2.2628 -0.552002 0.3989
                      CHANNELS 3 Zrotation Xrotation Yrotation
                      End Site
                      {
                        OFFSET 1.6102 -0.4807 0.2612
                      }
                    }
                  }
                }
                JOINT LeftHandMiddle1
                {
                  OFFSET 8.9937 0.895004 0.2143
                  CHANNELS 3 Zrotation Xrotation Yrotation
                  JOINT LeftHandMiddle2
                  {
                    OFFSET 4.0984 0.0113983 -0.0242
                    CHANNELS 3 Zrotation Xrotation Yrotation
                    JOINT LeftHandMiddle3
                    {
                      OFFSET 2.2716 0.00689697 -0.0138001
                      CHANNELS 3 Zrotation Xrotation Yrotation
                      End Site
                      {
                        OFFSET 2.0404 -0.1441 0.0027
                      }
                    }
                  }
                }
                JOINT LeftHandRing1
                {
                  OFFSET 8.5234 0.597198 -2.0164
                  CHANNELS 3 Zrotation Xrotation Yrotation
                  JOINT LeftHandRing2
                  {
                    OFFSET 3.7188 -0.188293 -0.2328
                    CHANNELS 3 Zrotation Xrotation Yrotation
                    JOINT LeftHandRing3
                    {
                      OFFSET 2.1191 -0.106598 -0.1332
                      CHANNELS 3 Zrotation Xrotation Yrotation
                      End Site
                      {
                        OFFSET 1.8737 -0.2304 -0.0886
                      }
                    }
                  }
                }
                JOINT LeftHandPinky1
                {
                  OFFSET 7.9094 -0.601089 -3.4825
                  CHANNELS 3 Zrotation Xrotation Yrotation
                  JOINT LeftHandPinky2
                  {
                    OFFSET 2.2874 -0.477005 -0.6314
                    CHANNELS 3 Zrotation Xrotation Yrotation
                    JOINT LeftHandPinky3
                    {
                      OFFSET 1.6774 -0.349396 -0.4633
                      CHANNELS 3 Zrotation Xrotation Yrotation
                      End Site
                      {
                        OFFSET 1.4888 -0.4091 -0.3416
                      }
                    }
                  }
                }
                JOINT LeftHandThumb1
                {
                  OFFSET 1.833 -1.3875 1.3896
                  CHANNELS 3 Zrotation Xrotation Yrotation
                  JOINT LeftHandThumb2
                  {
                    OFFSET 3.4129 -1.121 2.5732
                    CHANNELS 3 Zrotation Xrotation Yrotation
                    JOINT LeftHandThumb3
                    {
                      OFFSET 2.2474 -0.804199 1.6192
                      CHANNELS 3 Zrotation Xrotation Yrotation
                      End Site
                      {
                        OFFSET 1.6527 -0.5689 1.1317
                      }
                    }
                  }
                }
              }
            }
          }
        }
        JOINT RightShoulder
        {
          OFFSET -2.2086 21.1115 7.2329
          CHANNELS 3 Zrotation Xrotation Yrotation
          JOINT RightArm
          {
            OFFSET -13.1216 3.0287 -4.9007
            CHANNELS 3 Zrotation Xrotation Yrotation
            JOINT RightForeArm
            {
              OFFSET -27.4081 -0.0973053 -0.2375
              CHANNELS 3 Zrotation Xrotation Yrotation
              JOINT RightHand
              {
                OFFSET -22.8641 0.0664063 -0.1369
                CHANNELS 3 Zrotation Xrotation Yrotation
                JOINT RightHandIndex1
                {
                  OFFSET -8.8614 0.774994 2.4612
                  CHANNELS 3 Zrotation Xrotation Yrotation
                  JOINT RightHandIndex2
                  {
                    OFFSET -3.3146 -0.808304 0.5841
                    CHANNELS 3 Zrotation Xrotation Yrotation
                    JOINT RightHandIndex3
                    {
                      OFFSET -2.2628 -0.552002 0.3989
                      CHANNELS 3 Zrotation Xrotation Yrotation
                      End Site
                      {
                        OFFSET -1.6102 -0.4807 0.2612
                      }
                    }
                  }
                }
                JOINT RightHandMiddle1
                {
                  OFFSET -8.9937 0.894989 0.2143
                  CHANNELS 3 Zrotation Xrotation Yrotation
                  JOINT RightHandMiddle2
                  {
                    OFFSET -4.0984 0.0113983 -0.0242
                    CHANNELS 3 Zrotation Xrotation Yrotation
                    JOINT RightHandMiddle3
                    {
                      OFFSET -2.2716 0.00691223 -0.0138001
                      CHANNELS 3 Zrotation Xrotation Yrotation
                      End Site
                      {
                        OFFSET -2.0404 -0.1441 0.0027
                      }
                    }
                  }
                }
                JOINT RightHandRing1
                {
                  OFFSET -8.5234 0.597198 -2.0164
                  CHANNELS 3 Zrotation Xrotation Yrotation
                  JOINT RightHandRing2
                  {
                    OFFSET -3.7188 -0.188309 -0.2328
                    CHANNELS 3 Zrotation Xrotation Yrotation
                    JOINT RightHandRing3
                    {
                      OFFSET -2.1191 -0.106598 -0.1332
                      CHANNELS 3 Zrotation Xrotation Yrotation
                      End Site
                      {
                        OFFSET -1.8737 -0.2304 -0.0886
                      }
                    }
                  }
                }
                JOINT RightHandPinky1
                {
                  OFFSET -7.9094 -0.601105 -3.4825
                  CHANNELS 3 Zrotation Xrotation Yrotation
                  JOINT RightHandPinky2
                  {
                    OFFSET -2.2874 -0.477005 -0.6314
                    CHANNELS 3 Zrotation Xrotation Yrotation
                    JOINT RightHandPinky3
                    {
                      OFFSET -1.6774 -0.349396 -0.4633
                      CHANNELS 3 Zrotation Xrotation Yrotation
                      End Site
                      {
                        OFFSET -1.4888 -0.4091 -0.3416
                      }
                    }
                  }
                }
                JOINT RightHandThumb1
                {
                  OFFSET -1.833 -1.38751 1.3896
                  CHANNELS 3 Zrotation Xrotation Yrotation
                  JOINT RightHandThumb2
                  {
                    OFFSET -3.41299 -1.12099 2.5732
                    CHANNELS 3 Zrotation Xrotation Yrotation
                    JOINT RightHandThumb3
                    {
                      OFFSET -2.24741 -0.804108 1.6192
                      CHANNELS 3 Zrotation Xrotation Yrotation
                      End Site
                      {
                        OFFSET -1.6527 -0.5689 1.1317
                      }
                    }
                  }
                }
              }
            }
          }
        }
      }
    }
  }
  JOINT RightUpLeg
  {
    OFFSET -9.1966 3.8861 -0.7581
    CHANNELS 3 Zrotation Xrotation Yrotation
    JOINT RightLeg
    {
      OFFSET -0.7359 -41.0265 0
      CHANNELS 3 Zrotation Xrotation Yrotation
      JOINT RightFoot
      {
        OFFSET 0 -40.2855 0
        CHANNELS 3 Zrotation Xrotation Yrotation
        JOINT RightToeBase
        {
          OFFSET 0 -5.6122 11.7359
          CHANNELS 3 Zrotation Xrotation Yrotation
          End Site
          {
            OFFSET 0 0 7.8731
          }
        }
      }
    }
  }
  JOINT LeftUpLeg
  {
    OFFSET 9.1965 3.8864 -0.7581
    CHANNELS 3 Zrotation Xrotation Yrotation
    JOINT LeftLeg
    {
      OFFSET 0.7359 -41.0268 0
      CHANNELS 3 Zrotation Xrotation Yrotation
      JOINT LeftFoot
      {
        OFFSET 0 -40.2855 0
        CHANNELS 3 Zrotation Xrotation Yrotation
        JOINT LeftToeBase
        {
          OFFSET 0 -5.6122 11.7359
          CHANNELS 3 Zrotation Xrotation Yrotation
          End Site
          {
            OFFSET 0 0 7.8731
          }
        }
      }
    }
  }
}
MOTION
Frames:	4
Frame Time:	0.0333333
0.0269384 3.79883 78.0587 -180 -85.9956 -180 -0.00288181 0.832752 -0.0889458 -0.0044713 1.66556 -0.177878 -0.00447128 1.66552 -0.177878 2.35063e-007 14.6009 -5.04992e-006 4.75679e-008 -4.02564 3.95082e-008 -0.036526 -12.6922 -1.01592 -81.6662 0.194622 -2.49258 2.69683 -2.03218 -44.9518 -17.4494 -6.99469 14.1314 -1.59028e-015 3.97569e-016 -0 -1.19271e-015 -1.19271e-015 -0 -0 -1.19271e-015 -0 -1.59028e-015 3.97569e-016 -0 -0.0146055 -8.81745e-005 -3.6549e-006 -1.19271e-015 -7.95139e-016 -0 -1.59028e-015 3.97569e-016 -0 -0.018753 -0.0011768 5.36878e-005 -8.46252e-007 3.43997e-007 -7.08646e-007 -1.59028e-015 3.97569e-016 -0 -0.0122316 -0.00323472 0.000672119 -8.45651e-007 3.43769e-007 -7.08593e-007 -1.59028e-015 3.97569e-016 -0 -1.19271e-015 -1.19271e-015 -0 -0 -1.19271e-015 -0 -2.57304 -4.5587 -3.8074 86.1124 1.05922 0.462211 2.01799 4.27016 67.2058 14.3516 -3.1639 -6.96018 -1.16164e-006 -5.93596e-007 -2.5056e-006 6.36111e-015 -7.95139e-016 6.36111e-015 2.38542e-015 7.95139e-016 1.27222e-014 -1.16164e-006 -5.93596e-007 -2.5056e-006 0.0149636 -9.00414e-005 2.76574e-006 -5.96354e-015 -5.56597e-015 3.18055e-015 -1.16164e-006 -5.93596e-007 -2.5056e-006 0.0190001 -0.00118966 -5.68079e-005 -7.7526e-015 -7.55382e-015 3.18055e-015 -1.16164e-006 -5.93596e-007 -2.5056e-006 0.0122712 -0.00325151 -0.000679157 2.78299e-015 -1.19271e-015 3.18055e-015 -1.16164e-006 -5.93596e-007 -2.5056e-006 6.36111e-015 -7.95139e-016 6.36111e-015 2.38542e-015 7.95139e-016 1.27222e-014 -86.8323 -62.4678 -123.114 147.64 52.1584 -147.67 -14.3917 11.7757 15.5944 1.27222e-014 4.77083e-015 4.77083e-015 79.423 -64.594 115.268 -130.434 55.9555 133.222 14.3485 11.5256 -15.97 -8.82781e-032 1.59028e-015 3.18055e-015 
0.0278473 3.7988 78.0588 -180 -85.9956 -180 -0.0028701 0.822664 -0.0889662 -0.00446319 1.64533 -0.177919 -0.00446315 1.64534 -0.177919 3.58149e-006 15.2031 -1.20321e-005 -5.12849e-008 -3.54961 -4.08063e-008 -0.457407 -12.8639 -1.32497 -81.2865 0.14357 -2.60951 2.79237 -2.13323 -44.6616 -17.4494 -6.9947 14.1315 -1.59028e-015 7.95139e-016 -6.36111e-015 -3.97569e-015 3.97569e-016 -0 2.38542e-015 -1.19271e-015 3.18055e-015 -1.59028e-015 7.95139e-016 -6.36111e-015 -0.0145959 -8.98317e-005 -5.62353e-006 1.98785e-015 7.95139e-016 -0 -1.59028e-015 7.95139e-016 -6.36111e-015 -0.018768 -0.00117977 6.23491e-005 1.59028e-015 -1.19271e-015 -3.18055e-015 -1.59028e-015 7.95139e-016 -6.36111e-015 -0.0122551 -0.00324309 0.000668546 3.18055e-015 1.59028e-015 -1.59028e-014 -1.59028e-015 7.95139e-016 -6.36111e-015 -3.97569e-015 3.97569e-016 -0 2.38542e-015 -1.19271e-015 3.18055e-015 -2.46246 -4.79613 -3.65653 85.9899 1.04023 0.615378 2.00739 4.19692 66.8342 14.3516 -3.1639 -6.96018 -1.98785e-015 -1.19271e-015 -3.18055e-015 1.39149e-015 -3.97569e-016 -6.36111e-015 2.38542e-015 -1.59028e-015 -6.36111e-015 -1.98785e-015 -1.19271e-015 -3.18055e-015 0.0149971 -9.09393e-005 3.08029e-006 -3.18055e-015 -7.95139e-016 -3.18055e-015 -1.98785e-015 -1.19271e-015 -3.18055e-015 0.0189923 -0.00119113 -5.885e-005 -0 -3.97569e-016 -0 -1.98785e-015 -1.19271e-015 -3.18055e-015 0.0122794 -0.00325446 -0.000679282 -1.98785e-016 -7.95139e-016 3.18055e-015 -1.98785e-015 -1.19271e-015 -3.18055e-015 1.39149e-015 -3.97569e-016 -6.36111e-015 2.38542e-015 -1.59028e-015 -6.36111e-015 -86.6759 -62.3424 -122.937 147.285 52.4239 -147.359 -14.3987 11.7715 15.6116 4.23222e-006 1.63536e-006 6.70359e-007 78.9023 -64.5407 114.766 -129.814 56.0366 132.694 14.3492 11.5173 -15.9814 -2.71683e-007 1.36317e-006 3.37274e-007 
0.02875 3.79878 78.0589 -180 -85.9956 -180 -0.00285802 0.812624 -0.0890008 -0.00445414 1.62526 -0.177988 -0.00445418 1.62526 -0.177988 -2.52545e-006 15.8049 1.74879e-005 5.23733e-008 -3.07365 8.50785e-008 -0.879483 -13.0336 -1.63547 -80.9068 0.0917272 -2.72609 2.88838 -2.23376 -44.3713 -17.4494 -6.9947 14.1315 5.56597e-015 -7.95139e-015 -6.36111e-015 7.55382e-015 -9.54166e-015 6.36111e-015 6.36111e-015 -7.55382e-015 -3.18055e-015 5.56597e-015 -7.95139e-015 -6.36111e-015 -0.0145912 -9.02619e-005 -9.87072e-007 1.19271e-015 7.95139e-016 -9.54166e-015 5.56597e-015 -7.95139e-015 -6.36111e-015 -0.0187834 -0.00117104 5.70143e-005 -8.39076e-007 3.53578e-007 -7.25064e-007 5.56597e-015 -7.95139e-015 -6.36111e-015 -0.0122435 -0.00324108 0.000675231 2.38542e-015 0 -6.36111e-015 5.56597e-015 -7.95139e-015 -6.36111e-015 7.55382e-015 -9.54166e-015 6.36111e-015 6.36111e-015 -7.55382e-015 -3.18055e-015 -2.35122 -5.03353 -3.50512 85.8674 1.02089 0.768548 1.99635 4.12376 66.4626 14.3516 -3.1639 -6.96017 -7.35503e-015 -6.36111e-015 -0 -1.05356e-014 -5.96354e-015 -0 -7.95139e-015 -5.96354e-015 3.18055e-015 -7.35503e-015 -6.36111e-015 -0 0.015006 -8.92854e-005 3.7868e-008 -1.78906e-015 -7.95139e-016 -0 -7.35503e-015 -6.36111e-015 -0 0.0190005 -0.00119016 -6.05655e-005 -3.97569e-016 3.97569e-016 6.36111e-015 -7.35503e-015 -6.36111e-015 -0 0.0122917 -0.00325141 -0.000678804 2.5842e-015 -1.19271e-015 -0 -7.35503e-015 -6.36111e-015 -0 -1.05356e-014 -5.96354e-015 -0 -7.95139e-015 -5.96354e-015 3.18055e-015 -86.5207 -62.2171 -122.761 146.926 52.6885 -147.044 -14.4056 11.7673 15.6287 -4.25351e-006 3.22062e-007 -8.06529e-007 78.3853 -64.4853 114.266 -129.191 56.1143 132.165 14.35 11.509 -15.9928 3.18055e-015 -2.38542e-015 -0 
0.0296449 3.79877 78.059 -180 -85.9956 -180 -0.00284521 0.802459 -0.0890282 -0.00444387 1.60495 -0.178043 -0.00444391 1.60494 -0.178043 6.30593e-006 16.4069 -2.53288e-005 -2.61984e-009 -2.59769 1.56111e-007 -1.30276 -13.2005 -1.94749 -80.5273 0.0391302 -2.84232 2.98493 -2.33385 -44.0808 -17.4494 -6.9947 14.1315 1.32417e-031 -1.19271e-015 6.36111e-015 -0 0 3.18055e-015 2.20695e-032 -3.97569e-016 3.18055e-015 1.32417e-031 -1.19271e-015 6.36111e-015 -0.0146158 -8.62218e-005 1.2466e-006 -3.97569e-016 -3.97569e-016 3.18055e-015 1.32417e-031 -1.19271e-015 6.36111e-015 -0.0187787 -0.00117715 6.2239e-005 1.19271e-015 -3.97569e-016 -0 1.32417e-031 -1.19271e-015 6.36111e-015 -0.0122252 -0.00323538 0.000667379 8.34796e-007 -3.57808e-007 7.33428e-007 1.32417e-031 -1.19271e-015 6.36111e-015 -0 0 3.18055e-015 2.20695e-032 -3.97569e-016 3.18055e-015 -2.23931 -5.27001 -3.35325 85.745 1.00124 0.921638 1.98483 4.05068 66.091 14.3516 -3.1639 -6.96018 -7.95139e-016 0 -0 1.98785e-016 7.95139e-016 6.36111e-015 -2.5842e-015 3.97569e-016 3.18055e-015 -7.95139e-016 0 -0 0.0150003 -9.09395e-005 -2.02262e-006 -2.5842e-015 1.19271e-015 6.36111e-015 -7.95139e-016 0 -0 0.0190231 -0.00119073 -6.06646e-005 1.78906e-015 7.95139e-016 -0 -7.95139e-016 0 -0 0.0122523 -0.00324255 -0.000676092 -2.38542e-015 -2.5842e-014 -6.36111e-015 -7.95139e-016 0 -0 1.98785e-016 7.95139e-016 6.36111e-015 -2.5842e-015 3.97569e-016 3.18055e-015 -86.3669 -62.0914 -122.586 146.563 52.9518 -146.725 -14.4124 11.7631 15.6456 1.32417e-031 4.77083e-015 -1.59028e-015 77.8716 -64.4281 113.768 -128.566 56.1889 131.633 14.3506 11.5008 -16.0041 -6.36111e-015 0 -0 
